<svg id="Layer_1" data-name="Layer 1" xmlns="http://www.w3.org/2000/svg" width="360" height="102" viewBox="0 0 360 102"><title>varikozanet-logo</title><path d="M66.24906,34.00121a35.41517,35.41517,0,0,0-10.62933-23.9949A32.75679,32.75679,0,0,0,32.93962,1.00537C32.86986,1,32.79709,1,32.72544,1,19.31508,1.23205,11.29726,7.113,6.12961,14.99712A30.30558,30.30558,0,0,0,1.00115,32.64445,28.432,28.432,0,0,0,4.59353,46.37212C8.4112,53.07277,15.75408,59.38465,26.10186,59.39856c7.43385.00939,13.68091-2.49708,18.00961-6.93289,4.105-4.21638,6.48024-10.1753,6.48024-17.37148a25.149,25.149,0,0,0-7.55537-17.30755l-3.48105,2.59463a21.1049,21.1049,0,0,1,4.62284,13.15107A17.78546,17.78546,0,0,1,38.49906,47.0784a17.51227,17.51227,0,0,1-11.96263,4.27665C17.11456,51.312,9.1577,42.94712,9.02087,32.61474A22.96664,22.96664,0,0,1,14.933,16.5644c4.00747-4.4726,9.9401-7.51657,17.77822-7.51657h.1816a24.45918,24.45918,0,0,1,18.53633,8.16679A28.21484,28.21484,0,0,1,58.152,34.61428c.01559.13695,1.46412,13.87139-6.0066,30.40329a73.09321,73.09321,0,0,1-18.7666,25.20019A98.27983,98.27983,0,0,1,14.637,64.79882L8.45907,67.7572A123.6307,123.6307,0,0,0,30.33741,99.02734l1.74517,1.75766,2.60731-1.8075c.59778-.41958,14.96942-10.15591,24.78829-30.64352a67.99456,67.99456,0,0,0,6.77088-34.33277" fill="#003398" fill-rule="evenodd"/><polygon points="33.551 23.519 23.754 33.316 18.867 28.429 14.035 33.261 18.921 38.148 18.879 38.189 23.713 43.025 23.754 42.98 23.8 43.025 28.63 38.189 28.588 38.148 38.382 28.352 33.551 23.519" fill="#be027f"/><path d="M337.85978,26.72579v6.485H340.388l.58618-3.92016.5859-.47624h4.39707V48.746l-.623.58618-2.38182.18331v1.79537h10.95455V49.51552l-2.38063-.18331-.62305-.58618V28.8144H355.3l.54933.47624.623,3.92016H359v-6.485Zm-21.32414,24.5851h19.71208v-6.5587h-2.49147l-.623,3.88392-.476.58587h-8.50047V39.69586h4.76275l.513.51334.36641,2.63788h2.16224V34.3466H329.799l-.36641,2.63794-.513.5134h-4.76275V28.8144h7.291l.476.47624.54972,3.22405h2.56531v-5.7889H316.53564v1.79506l2.199.18325.58541.51334V48.746l-.58541.58618-2.199.18331ZM288.617,26.72579v1.79506l2.12548.18325.58587.58654V48.746l-.58587.58618-2.12548.18331v1.79537h10.3325V49.51552l-2.19911-.18331-.5859-.58618V39.51286h10.62513V48.746l-.54942.58618-2.2344.18331v1.79537h10.3318V49.51552l-2.12478-.18331-.58706-.58618V29.29064l.58706-.58654,2.12478-.18325V26.72579h-10.3318v1.79506l2.2344.18325.54942.58654v8.024H296.16451v-8.024l.5859-.58654,2.19911-.18325V26.72579Zm-22.64241,4.763,3.04,9.05023h-6.22809Zm-.80628-5.01948-8.2804,22.7161-2.19912.33009v1.79537h7.87779V49.51552l-2.30815-.25676-.36681-.47625,2.19872-6.19207h7.98725l2.19842,6.229-.25637.47625-2.30895.21985v1.79537h9.89353V49.51552l-2.16227-.36687-8.42739-22.67932ZM235.6003,43.873v6.63147a21.09317,21.09317,0,0,0,6.925,1.24574c4.799,0,11.21134-1.46553,11.21134-7.65742,0-4.46978-3.62727-5.78921-6.41229-5.89883v-.07339c3.29786-.87941,5.16717-3.22435,5.16717-5.679a5.37019,5.37019,0,0,0-2.968-4.98263c-.9528-.5134-2.74814-1.17265-6.33882-1.17265a22.44519,22.44519,0,0,0-6.9985,1.02563v5.93562h2.63822l.62335-3.59068.513-.51278a6.63932,6.63932,0,0,1,2.74735-.513c1.75846,0,4.72648.40305,4.72648,4.17716,0,4.21315-3.444,4.83611-5.34865,4.83611-.77009,0-1.75937-.07333-2.01522-.07333v2.49147a16.5581,16.5581,0,0,1,3.1507-.36663c4.17688,0,5.38552,2.23532,5.38552,4.873,0,2.565-2.05149,4.83641-5.78869,4.83641a9.31773,9.31773,0,0,1-3.37052-.58587l-.47625-.55024L238.385,43.873ZM220.3586,28.48456a5.94863,5.94863,0,0,1,5.2764,3.22435A15.15709,15.15709,0,0,1,227.31992,39.11c0,8.903-4.94606,10.4423-6.85166,10.4423a6.10562,6.10562,0,0,1-5.42212-3.44427,15.48441,15.48441,0,0,1-1.57605-7.218,14.42338,14.42338,0,0,1,1.6857-7.21795A5.84,5.84,0,0,1,220.3586,28.48456Zm-.10992-2.34464a12.18324,12.18324,0,0,0-8.49967,3.1872,12.80654,12.80654,0,0,0-3.7741,9.59926c0,7.07154,4.36,12.97038,12.2372,12.97038,7.511,0,12.60375-5.23909,12.60375-12.82337C232.81586,31.23205,227.50351,26.13992,220.24868,26.13992Zm-37.628.58587v1.79506l2.23541.18325.54871.51334V48.746l-.54871.58618-2.23541.18331v1.79537h10.40556V49.51552l-2.19883-.18331L190.241,48.746V39.65926h1.35616c2.38183,0,3.3703,1.64866,4.06644,3.2975l2.85777,7.07149v1.28264h8.35436V49.51552l-2.41862-.18331-.98878-.623-2.4187-5.27612c-1.20915-2.67454-2.23471-4.57984-5.09249-4.94616v-.07308c1.1355-.47655,1.90549-1.28227,2.8209-3.37119l1.503-3.44384a6.83231,6.83231,0,0,1,.98847-1.75858l2.16225,2.01522a2.59757,2.59757,0,0,0,2.56423-2.67478c0-1.172-.58608-2.74781-3.04108-2.74781-2.454,0-3.9202,1.9053-5.16594,4.6165l-1.61234,3.51735c-1.1355,2.52807-1.90528,3.04086-3.40709,3.04086H190.241V29.21744l.58638-.51334,2.19883-.18325V26.72579Zm-28.57836,0v1.79506l2.12516.18325.58589.58654V48.746l-.58589.58618-2.12516.18331v1.79537h10.33189V49.51552l-2.19823-.18331-.58649-.58618V47.35377L172.87473,33.4675V48.746l-.54971.58618-2.23561.18331v1.79537H180.4219V49.51552l-2.12486-.18331-.58649-.58618V29.29064l.58649-.58654,2.12486-.18325V26.72579H170.08941v1.79506l2.23561.18325.54971.58654v1.02613L161.58944,44.2025V29.29064l.58649-.58654,2.19823-.18325V26.72579ZM140.11968,28.8144h1.90469a5.01648,5.01648,0,0,1,3.66354,1.28221,5.67457,5.67457,0,0,1,1.46562,4.21345,6.08894,6.08894,0,0,1-1.42853,4.32338,5.82763,5.82763,0,0,1-4.28711,1.50238c-.43937,0-.98847-.03685-1.31821-.07333Zm-7.62113,22.49649h10.77186V49.51552l-2.60111-.18331-.54962-.58618V42.151c1.35508.07308,1.94127.10968,2.41752.10968,1.06244,0,4.58005-.0366,6.99836-2.01522a7.74949,7.74949,0,0,0,2.67419-6.33836c0-3.62728-1.28223-7.18135-10.00178-7.18135h-9.893v1.79506l2.41832.18325.54971.51334V48.746l-.65935.58618-2.12507.18331ZM118.46542,31.48881l3.042,9.05023h-6.22948Zm-.806-5.01948L109.379,49.18543l-2.19792.33009v1.79537h7.8773V49.51552l-2.30817-.25676-.36631-.47625,2.19793-6.19207h7.98744l2.19792,6.229-.25665.47625-2.30727.21985v1.79537h9.89182V49.51552l-2.16164-.36687-8.426-22.67932ZM93.18511,39.76956c1.39215-.0737,1.8682-.0737,2.088-.0737a8.34326,8.34326,0,0,1,4.03015.84318,4.13376,4.13376,0,0,1,1.79595,3.84671,4.61194,4.61194,0,0,1-1.3197,3.59049c-1.35508,1.24574-3.59019,1.31943-4.909,1.31943-.623,0-1.246-.03691-1.68539-.07369Zm0-10.99207a10.142,10.142,0,0,1,1.20835-.07339,6.7835,6.7835,0,0,1,3.99407.9528,4.10545,4.10545,0,0,1,1.35568,3.37064,4.37435,4.37435,0,0,1-1.35568,3.5176,6.76057,6.76057,0,0,1-4.17717,1.13611,7.94405,7.94405,0,0,1-1.02525-.0369ZM85.564,26.72579v1.79506l2.19793.18325.58678.51334V48.746l-.58678.58618-2.19793.18331v1.79537H96.99568c2.34464,0,9.23257-.69616,9.23257-7.035,0-3.261-2.16105-6.00882-6.44876-6.00882h-.219V38.194c2.74753-.65987,5.239-2.08861,5.239-5.78891,0-5.09311-5.679-5.67928-7.8778-5.67928Z" fill="#003398" fill-rule="evenodd"/><path d="M347.01082,66.18022l-3.45559.65956v.69927l1.59787.23938-.95841,5.1934a8.99993,8.99993,0,0,0-.12042,1.13837,1.77259,1.77259,0,0,0,1.95794,1.99765c1.718,0,3.35582-1.43814,3.77491-1.73784v.09974a1.37384,1.37384,0,0,0,1.4582,1.55794,8.58306,8.58306,0,0,0,1.558-.21985c.18042-.03941.49973-.11987,1.61825-.47905v-.759a3.98121,3.98121,0,0,1-1.21826.23968.94469.94469,0,0,1-.95929-1.03894,8.15421,8.15421,0,0,1,.22037-1.43789l1.15771-6.19207-2.37676.279L349.927,73.451a6.00851,6.00851,0,0,1-2.43651.97873.98162.98162,0,0,1-1.01878-1.07883c0-.23932.12015-.95848.15974-1.19834l1.1384-5.97234Zm-11.96433,0-3.45616.65956v.69927l1.59784.23938-.95838,5.1934a8.99226,8.99226,0,0,0-.12045,1.13837,1.77294,1.77294,0,0,0,1.958,1.99765c1.71808,0,3.3559-1.43814,3.77518-1.73784v.09974a1.37336,1.37336,0,0,0,1.45793,1.55794,8.602,8.602,0,0,0,1.55846-.21985c.1799-.03941.49864-.11987,1.61773-.47905v-.759a3.97737,3.97737,0,0,1-1.21825.23968.94447.94447,0,0,1-.959-1.03894,8.14741,8.14741,0,0,1,.22019-1.43789l1.15837-6.19207-2.37751.279L337.962,73.451a6.00825,6.00825,0,0,1-2.43651.97873.98182.98182,0,0,1-1.019-1.07883c0-.23932.12045-.95848.16062-1.19834l1.1381-5.97234Zm-11.226,2.61671,1.41825-.79865a3.45221,3.45221,0,0,1,1.37808-.47966.9355.9355,0,0,1,.93889,1.05876,1.8928,1.8928,0,0,1-1.19815,1.6378l-1.01936.5794c-1.03835.5791-2.33676,1.478-2.33676,3.036,0,.999.53972,2.27729,2.7966,2.27729A8.47951,8.47951,0,0,0,330.43182,74.37V73.19113a12.52157,12.52157,0,0,1-1.49807.85965,5.56864,5.56864,0,0,1-1.93738.53878,1.06173,1.06173,0,0,1-1.15847-1.21823c0-1.07883.659-1.55819,1.47809-2.05713l.95838-.55957c1.23814-.73881,1.95776-1.3783,1.95776-2.57676,0-1.61772-1.43871-2.09757-2.61668-2.09757a4.74221,4.74221,0,0,0-2.49717.75948l-1.29783.77888Zm-8.22971-.39945a3.89536,3.89536,0,0,1,1.97785-.85843c1.27743,0,1.5373,1.49786,1.5373,2.47677a6.31536,6.31536,0,0,1-.91882,3.3754,2.75271,2.75271,0,0,1-2.31758,1.45821,3.3255,3.3255,0,0,1-1.35755-.33942Zm-.45954-2.33707-3.33544.77937v.69927l1.5373.23938-1.91689,11.10535-.17971.25975-1.21905.31965v.79913h5.57333v-.79913l-1.85711-.31965.59868-3.49491a4.24047,4.24047,0,0,0,1.63835.3196,5.30684,5.30684,0,0,0,4.05482-1.91744A6.76273,6.76273,0,0,0,321.6633,69.616c0-2.617-1.43862-3.53571-2.7963-3.53571a5.17129,5.17129,0,0,0-3.13681,1.33858l.28012-1.35847Zm-14.062.67945v.65864l1.7376.15983a4.92081,4.92081,0,0,1,.49982,1.49786l1.21826,6.33262h.7593c-.85907,1.71772-1.998,3.05611-2.97684,3.21594l-1.33806-1.25885a1.38124,1.38124,0,0,0-1.17857,1.3384,1.69465,1.69465,0,0,0,1.69758,1.53867,3.51125,3.51125,0,0,0,1.91829-.71965,8.36338,8.36338,0,0,0,1.79793-1.89755,23.92776,23.92776,0,0,0,2.97592-5.55325,19.37417,19.37417,0,0,1,2.2373-4.27409l1.17778-.65956V66.58l-1.57808-.51962h-.619c-1.57808,3.63515-1.958,4.57435-3.03568,7.411l-.69924-4.35492a5.94329,5.94329,0,0,0-.73941-2.51666,1.30583,1.30583,0,0,0-.77888-.55915Zm-6.572,1.65762a3.89318,3.89318,0,0,1,1.97756-.85843c1.27861,0,1.53839,1.49786,1.53839,2.47677a6.32073,6.32073,0,0,1-.919,3.3754,2.75235,2.75235,0,0,1-2.31756,1.45821A3.31727,3.31727,0,0,1,293.419,74.51Zm-.45926-2.33707-3.33571.77937v.69927l1.53809.23938-1.91768,11.10535-.17941.25975-1.21874.31965v.79913h5.57271v-.79913l-1.8571-.31965.599-3.49491a4.23836,4.23836,0,0,0,1.63832.3196,5.30616,5.30616,0,0,0,4.05424-1.91744,6.75954,6.75954,0,0,0,1.63783-4.43477c0-2.617-1.43863-3.53571-2.79661-3.53571a5.17091,5.17091,0,0,0-3.13563,1.33858l.27985-1.35847Zm-11.84558.11981-3.455.65956v.69927l1.59794.23938-.95848,5.1934a9.01069,9.01069,0,0,0-.12045,1.13837,1.77273,1.77273,0,0,0,1.95837,1.99765c1.71768,0,3.35472-1.43814,3.774-1.73784v.09974a1.37383,1.37383,0,0,0,1.45873,1.55794,8.57538,8.57538,0,0,0,1.55767-.21985c.1799-.03941.5-.11987,1.61861-.47905v-.759a3.983,3.983,0,0,1-1.21914.23968.94443.94443,0,0,1-.95838-1.03894,8.19878,8.19878,0,0,1,.21976-1.43789l1.1582-6.19207-2.37672.279-1.33831,7.0314a6.00411,6.00411,0,0,1-2.43739.97873.98164.98164,0,0,1-1.01826-1.07883c0-.23932.12042-.95848.15983-1.19834l1.13889-5.97234Zm-13.72147.73923v.679l1.81723.14006a2.95634,2.95634,0,0,1,.3799.69922,23.9199,23.9199,0,0,1,1.01825,2.87645A8.04481,8.04481,0,0,1,269.3687,74.27l-.87853-1.05851a1.43807,1.43807,0,0,0-1.25793,1.39793A1.33018,1.33018,0,0,0,268.65,75.92826c1.35819,0,2.61719-1.93787,3.49554-3.57567.69863,3.3158,1.45842,3.6751,2.65688,3.6751a8.87718,8.87718,0,0,0,2.67677-.55927V74.6896a5.88942,5.88942,0,0,1-1.07893.13994c-1.45821,0-1.81742-1.83783-1.95824-2.377-.15953-.53969-.29944-.95872-.538-1.83752a5.58951,5.58951,0,0,1,2.21672-2.69687l.77879,1.05846a1.60045,1.60045,0,0,0,1.27831-1.51829,1.21127,1.21127,0,0,0-1.25794-1.27807c-1.81742,0-3.15609,2.85669-3.47562,3.43579-.79929-3.5556-1.39815-3.57536-2.098-3.57536h-.13942Zm-11.02654-4.97354a1.89539,1.89539,0,0,0-.9194-.21986,1.36888,1.36888,0,0,0-1.51738,1.35847c0,1.09841,1.01856,1.6378,2.49657,1.6378a3.984,3.984,0,0,0,4.25453-3.67572h-.87883a2.76671,2.76671,0,0,1-2.67677,2.47738,2.33319,2.33319,0,0,1-.75872-.11987Zm-2.05768,4.23431-3.45506.65956v.69927l1.59793.23938-.95927,5.1934a9.21,9.21,0,0,0-.11965,1.13837,1.77262,1.77262,0,0,0,1.95717,1.99765c1.718,0,3.3561-1.43814,3.77567-1.73784v.09974a1.37363,1.37363,0,0,0,1.45824,1.55794,8.58613,8.58613,0,0,0,1.558-.21985c.17959-.03941.49863-.11987,1.61742-.47905v-.759a3.97236,3.97236,0,0,1-1.21825.23968.9446.9446,0,0,1-.95839-1.03894,8.12118,8.12118,0,0,1,.2198-1.43789l1.15816-6.19207-2.37672.279L258.3034,73.451a6.014,6.014,0,0,1-2.43681.97873.98173.98173,0,0,1-1.01935-1.07883c0-.23932.12011-.95848.16031-1.19834l1.1381-5.97234Zm-9.30744.93865c1.57725,0,1.71746,1.85771,1.71746,2.87652a7.18166,7.18166,0,0,1-.99846,3.93522A2.2225,2.2225,0,0,1,244.98,75.06922c-1.17808,0-1.69709-.83946-1.69709-2.81674C243.28291,71.45353,243.52176,67.11887,246.07921,67.11887Zm.29943-1.03857a5.724,5.724,0,0,0-5.65348,5.91292,4.156,4.156,0,0,0,1.03945,2.93637,3.868,3.868,0,0,0,2.95613,1.17826,5.78708,5.78708,0,0,0,5.6328-5.913,4.158,4.158,0,0,0-1.07853-2.99571A3.85548,3.85548,0,0,0,246.37864,66.0803Zm-13.70238.09992-3.45617.65956v.69927l1.59784.23938-1.59784,8.12945h2.39713l.73859-4.47442h3.436l-.41988,2.11747a5.171,5.171,0,0,0-.1597,1.11878c0,.95848.79916,1.358,1.65851,1.358a10.06638,10.06638,0,0,0,2.97592-.67914v-.759a4.25516,4.25516,0,0,1-1.15878.21991.89874.89874,0,0,1-.99837-1.01856,7.58569,7.58569,0,0,1,.21958-1.45827l1.29811-6.19207-2.37673.279L236.031,70.275h-3.47486l.87853-4.09474Zm-11.02693,2.21726a3.90055,3.90055,0,0,1,1.97755-.85843c1.27862,0,1.53836,1.49786,1.53836,2.47677a6.32343,6.32343,0,0,1-.91869,3.3754,2.753,2.753,0,0,1-2.317,1.45821A3.32532,3.32532,0,0,1,220.5705,74.51Zm-.459-2.33707-3.3365.77937v.69927l1.53866.23938-1.91777,11.10535-.17992.25975-1.21824.31965v.79913h5.57273v-.79913l-1.85762-.31965.59919-3.49491a4.24044,4.24044,0,0,0,1.63814.3196,5.3046,5.3046,0,0,0,4.05442-1.91744,6.7567,6.7567,0,0,0,1.63813-4.43477c0-2.617-1.438-3.53571-2.79572-3.53571a5.16967,5.16967,0,0,0-3.13621,1.33858l.27933-1.35847ZM211.0033,70.53483a7.03492,7.03492,0,0,1,.85844-2.19713c.67965-1.11879,1.37807-1.27861,1.77835-1.27861a.96072.96072,0,0,1,.97859,1.03863,1.933,1.933,0,0,1-.81907,1.51829A5.149,5.149,0,0,1,211.0033,70.53483Zm5.0733,2.6563a5.7112,5.7112,0,0,1-3.19579,1.35877c-1.15849,0-2.0772-.81926-2.0772-2.41722,0-.21986.01949-.59917.03937-.759.18011.02007.44.02007.73942.02007,1.73787,0,5.0537-.53908,5.0537-3.11644,0-1.43753-.89922-2.197-2.47729-2.197-3.595,0-5.75232,3.516-5.75232,6.2122,0,1.69789.69862,3.81535,3.51592,3.81535A7.09711,7.09711,0,0,0,216.03632,74.41Zm-15.0207-1.67751,1.3185-.19942a1.55807,1.55807,0,0,1,1.75736,1.61773,2.11934,2.11934,0,0,1-2.21711,2.217,1.772,1.772,0,0,1-1.21825-.37974l.3595-1.37793a1.4377,1.4377,0,0,0-1.07892-.45929,1.14987,1.14987,0,0,0-1.23774,1.1984,1.69644,1.69644,0,0,0,.95839,1.53806,4.57814,4.57814,0,0,0,2.17673.43946,6.71917,6.71917,0,0,0,2.93714-.55927,3.03017,3.03017,0,0,0,1.8772-2.73646c0-1.25854-1.178-1.95745-2.41661-2.07732v-.04026c1.83723-.45923,2.73644-1.478,2.73644-2.45688,0-1.53776-1.53808-2.15736-3.017-2.15736a5.12212,5.12212,0,0,0-3.93459,1.41825v1.1588A4.505,4.505,0,0,1,202.913,67.339c.67934,0,1.61824.2,1.61824,1.21852a1.48941,1.48941,0,0,1-.69863,1.27807,3.36245,3.36245,0,0,1-1.95826.51962h-.81846Zm-6.33262-3.29573-.91821,5.29283a3.3924,3.3924,0,0,1-2.03732.919c-.87943,0-1.4985-.519-1.4985-2.33671,0-2.95606,1.37887-5.07365,3.476-5.07365h.17961Zm1.65851-2.15748-.73889.47936a6.14846,6.14846,0,0,0-2.237-.45947c-3.336,0-5.69346,2.97589-5.69346,6.37221,0,1.8773.9391,3.65534,2.8167,3.65534a5.02878,5.02878,0,0,0,3.236-1.6381v.08015a1.38211,1.38211,0,0,0,1.518,1.47779,9.9524,9.9524,0,0,0,2.99629-.6989v-.759a4.54906,4.54906,0,0,1-1.21825.23968.9403.9403,0,0,1-.9386-1.07883,8.87256,8.87256,0,0,1,.17961-1.398l.57879-3.23594a30.25966,30.25966,0,0,1,.67884-3.03629Zm-17.61761.25987v.69909l1.61744.65908a20.6305,20.6305,0,0,1-1.11819,3.895,6.30178,6.30178,0,0,1-1.818,2.79655l-.87833-1.1585a1.8794,1.8794,0,0,0-1.259,1.49792,1.366,1.366,0,0,0,1.41834,1.31826c1.81823,0,2.87648-1.8571,3.55551-3.51533a39.32657,39.32657,0,0,0,1.53838-5.0337h1.8773l-1.358,6.07227a5.54056,5.54056,0,0,0-.16,1.11878c0,.95848.79977,1.358,1.65761,1.358a10.07237,10.07237,0,0,0,2.97682-.67914v-.759a4.25766,4.25766,0,0,1-1.15849.21991.89944.89944,0,0,1-.99927-1.01856,7.4853,7.4853,0,0,1,.21958-1.45827l1.33869-6.01236Zm-11.12627,1.89761-.9188,5.29283a3.39237,3.39237,0,0,1-2.03731.919c-.87944,0-1.4979-.519-1.4979-2.33671,0-2.95606,1.37837-5.07365,3.47513-5.07365h.18051Zm1.65793-2.15748-.73882.47936a6.147,6.147,0,0,0-2.2371-.45947c-3.336,0-5.69257,2.97589-5.69257,6.37221,0,1.8773.9383,3.65534,2.8164,3.65534a5.02982,5.02982,0,0,0,3.23567-1.6381v.08015a1.38219,1.38219,0,0,0,1.51779,1.47779,9.95183,9.95183,0,0,0,2.99632-.6989v-.759a4.543,4.543,0,0,1-1.21856.23968.94053.94053,0,0,1-.9383-1.07883,8.93789,8.93789,0,0,1,.17961-1.398l.57879-3.23594a30.48356,30.48356,0,0,1,.67884-3.03629Zm-16.45853.11981-3.45616.65956v.69927l1.59795.23938-1.59795,8.12945h2.35694l.45976-2.71675,1.31769-1.61767,1.15879,2.31688c.55931,1.099,1.21916,2.13735,2.35714,2.13735a10.08023,10.08023,0,0,0,2.89575-.57909v-.759a4.23781,4.23781,0,0,1-1.03834.15983,2.134,2.134,0,0,1-1.63783-1.09872c-.08015-.14-.99837-1.71808-1.97724-3.79528a5.78338,5.78338,0,0,1,2.25749-1.9971l.71843,1.15813c.69982-.21949,1.61834-.61893,1.61834-1.718a1.27484,1.27484,0,0,0-1.23865-1.35785c-.91851,0-2.35694.83854-6.17171,5.67245h-.04028l1.17838-5.53288Zm-11.92494,0-3.45617.65956v.69927l1.59825.23938-.95879,5.1934a9.01644,9.01644,0,0,0-.12043,1.13837,1.773,1.773,0,0,0,1.95806,1.99765c1.718,0,3.35582-1.43814,3.77509-1.73784v.09974a1.37335,1.37335,0,0,0,1.45791,1.55794,8.60179,8.60179,0,0,0,1.55858-.21985c.17991-.03941.49863-.11987,1.61743-.47905v-.759a3.9755,3.9755,0,0,1-1.21794.23968.94449.94449,0,0,1-.9591-1.03894,8.14929,8.14929,0,0,1,.22019-1.43789l1.15848-6.19207-2.37764.279-1.33838,7.0314a6.00859,6.00859,0,0,1-2.4364.97873.98185.98185,0,0,1-1.01915-1.07883c0-.23932.12043-.95848.16071-1.19834l1.1377-5.97234Zm-11.70537,0-3.45556.65956v.69927l1.59786.23938-1.59786,8.12945h2.39683l.7386-4.47442h3.43567l-.41958,2.11747a5.17372,5.17372,0,0,0-.15921,1.11878c0,.95848.79867,1.358,1.65771,1.358a10.0728,10.0728,0,0,0,2.97623-.67914v-.759a4.25538,4.25538,0,0,1-1.1591.21991.89911.89911,0,0,1-.99866-1.01856,7.56667,7.56667,0,0,1,.21989-1.45827l1.299-6.19207-2.37792.279-.79809,3.85536h-3.47594l.87883-4.09474Zm-11.92555,0-3.45494.65956v.69927l1.59784.23938-.95928,5.1934a9.23376,9.23376,0,0,0-.11925,1.13837,1.77234,1.77234,0,0,0,1.95677,1.99765c1.71808,0,3.35591-1.43814,3.77577-1.73784v.09974a1.37343,1.37343,0,0,0,1.45823,1.55794,8.58448,8.58448,0,0,0,1.55787-.21985c.17971-.03941.49984-.11987,1.61744-.47905v-.759a3.96931,3.96931,0,0,1-1.21826.23968.94466.94466,0,0,1-.95838-1.03894,8.139,8.139,0,0,1,.21958-1.43789l1.15849-6.19207-2.37674.279L120.1982,73.451a6.01108,6.01108,0,0,1-2.43739.97873.98206.98206,0,0,1-1.01876-1.07883c0-.23932.12044-.95848.15982-1.19834l1.13919-5.97234Zm-12.58338.14006v.69909l1.61744.65908a20.60429,20.60429,0,0,1-1.1188,3.895A6.29637,6.29637,0,0,1,103.37927,74.37l-.87824-1.1585a1.879,1.879,0,0,0-1.25962,1.49792,1.36655,1.36655,0,0,0,1.41884,1.31826c1.818,0,2.87647-1.8571,3.55562-3.51533a39.21493,39.21493,0,0,0,1.53777-5.0337h1.8775l-1.35758,6.07227a5.51166,5.51166,0,0,0-.16012,1.11878c0,.95848.79928,1.358,1.65822,1.358a10.07417,10.07417,0,0,0,2.97622-.67914v-.759a4.25465,4.25465,0,0,1-1.15878.21991.89956.89956,0,0,1-.99918-1.01856,7.45264,7.45264,0,0,1,.22039-1.45827l1.33809-6.01236Zm-10.62673-.14006-3.45566.65956v.69927l1.59794.23938-1.59794,8.12945H92.972l.45986-2.71675,1.31819-1.61767,1.15908,2.31688c.5593,1.099,1.21825,2.13735,2.35635,2.13735a10.08683,10.08683,0,0,0,2.89686-.57909v-.759a4.249,4.249,0,0,1-1.03945.15983,2.13313,2.13313,0,0,1-1.637-1.09872c-.07987-.14-.99958-1.71808-1.97756-3.79528a5.77959,5.77959,0,0,1,2.2569-1.9971l.71962,1.15813c.69863-.21949,1.61684-.61893,1.61684-1.718a1.27437,1.27437,0,0,0-1.238-1.35785c-.91881,0-2.35664.83854-6.172,5.67245h-.04018l1.17887-5.53288Z" fill="#003398" fill-rule="evenodd"/></svg>